<svg width="121" height="132" viewBox="0 0 121 132" fill="none" xmlns="http://www.w3.org/2000/svg">
<path d="M59.7996 25.0997C59.8597 24.8835 59.7537 24.6276 59.6211 24.4276C59.5799 24.3652 59.4244 24.4122 59.3889 24.3699C59.3196 24.2872 59.3901 24.1987 59.3091 24.119C59.2815 24.0927 59.0337 24.1504 59.0105 24.1223C58.8851 23.9677 58.9356 23.812 58.8672 23.6495C58.5303 22.8533 58.3606 22.0583 58.1656 21.2481C58.1007 20.9721 57.8412 20.6747 57.9116 20.3785C57.92 20.3441 58.142 20.3416 58.1595 20.3334C58.427 20.2063 57.9863 20.2844 57.9207 20.2262C57.6619 19.9965 57.6127 19.719 57.6717 19.4638C57.6975 19.3564 58.1452 19.4142 57.8891 19.3359C57.8718 19.3304 57.641 19.3812 57.6131 19.3555C57.5504 19.2972 57.5793 19.1724 57.5556 19.1251C57.5083 19.0308 57.5089 19.0144 57.4964 18.9227C57.4773 18.7976 57.3454 18.6626 57.384 18.5256C57.3929 18.4963 57.6362 18.5074 57.6721 18.4583C57.7079 18.409 57.6741 18.2874 57.6132 18.253C57.5523 18.2182 57.3662 18.2563 57.3223 18.2538C56.9519 18.234 57.4405 18.0397 57.451 18.0206C57.6278 17.6767 57.3084 17.4196 57.2747 17.1165C57.2488 16.8779 57.3161 16.6294 57.2765 16.4025C57.2295 16.1411 57.0735 15.932 57.0654 15.674C57.0643 15.647 57.3491 15.6449 57.3483 15.6119C57.3393 15.2574 57.2665 14.9114 57.0345 14.5873C57.011 14.5553 56.7698 14.6296 56.7316 14.5995C56.5025 14.407 55.9751 14.1369 57.0325 13.8726C56.9726 13.7314 56.9083 13.5666 56.6755 13.4603C56.5259 13.3939 56.2672 13.5079 56.3693 13.3918C56.392 13.3657 56.631 13.3665 56.6473 13.3297C56.7161 13.1788 56.619 13.0205 56.7234 12.8657C56.7452 12.8338 56.9569 12.8158 56.9939 12.8031C57.2932 12.6987 56.7702 12.6399 56.7303 12.6201C56.4317 12.4639 56.5226 12.3059 56.4949 12.1312C56.4884 12.0908 56.7774 12.105 56.7813 12.065C56.797 11.8506 56.748 11.6425 56.5997 11.4571C56.5662 11.4166 56.3292 11.4839 56.3008 11.466C56.1783 11.3846 56.632 11.3106 56.5237 11.2324C56.5014 11.2158 56.2957 11.2488 56.2726 11.2478C55.9102 11.2322 56.4107 11.1327 56.4203 11.1173C56.5538 10.922 56.015 10.8674 56.0737 10.689C56.0813 10.6683 56.3475 10.6882 56.353 10.6319C56.3896 10.2663 56.2971 9.8981 56.0998 9.57408L55.2104 10.4843C55.2233 10.4769 55.2363 10.4692 55.2493 10.4614C55.3046 10.4287 55.2641 10.2312 55.2673 10.2068C55.3248 9.82562 55.3642 10.3362 55.3819 10.3555C55.5254 10.4944 55.6742 10.0699 55.755 10.6808C56.3797 10.4906 56.9777 10.8875 57.6685 10.4165C57.6773 10.4111 57.6907 10.1597 57.7081 10.1501C57.9192 10.0319 57.841 10.4163 57.9108 10.9055C57.9283 11.0283 58.095 10.4674 58.1092 10.4265C58.16 10.2757 58.1716 9.90043 58.186 9.87178C58.304 9.64742 58.142 10.8735 58.2581 10.8882C58.2621 10.8866 58.2747 10.6588 58.2873 10.6376C58.3269 10.5709 58.3463 10.6645 58.3864 10.5906C58.4784 10.4194 58.5794 9.82645 58.6435 10.1873C58.6511 10.234 58.5412 10.9271 58.6506 10.9078C58.694 10.8995 58.8812 10.9362 58.9403 10.8982C58.9982 10.8601 58.9924 10.6313 58.9973 10.6221C59.1777 10.3446 59.1408 10.2147 59.2712 9.78564C59.4019 9.35838 59.2415 10.3978 59.255 10.5181C59.2685 10.638 59.4075 10.408 59.4438 10.3264C59.4808 10.2449 59.4685 10.0982 59.4977 10.0532C59.6914 9.7596 59.4931 10.5794 59.5201 10.7515C59.5832 11.1591 59.7837 10.3995 59.9002 10.3385C59.932 10.3221 59.884 10.4948 59.9075 10.5148C60.0011 10.5918 60.0973 10.3596 60.1843 10.597C60.1981 10.6356 60.2267 11.1131 60.3356 10.7809C60.3512 10.733 60.3535 10.5371 60.4034 10.5001C60.4774 10.4445 60.6045 10.4195 60.6642 10.4934C60.7091 10.5483 60.6054 10.8571 60.6842 10.7677C60.7193 10.7278 60.6918 10.5347 60.7555 10.4752C60.8189 10.4156 60.9573 10.4434 61.0101 10.4573C61.0626 10.4714 60.9996 10.7078 61.0017 10.7246C61.0149 10.8211 61.0985 10.9511 61.1077 10.9521C61.5593 11.0454 62.0275 10.6972 62.4529 10.8918C62.4858 10.9067 62.4284 11.1574 62.4331 11.1623C62.5365 11.2846 62.5352 10.5972 62.6481 10.3825C62.5665 10.8959 62.6277 10.8093 62.7039 10.8771C62.7406 10.9101 62.6917 11.1066 62.6926 11.1276C62.7119 11.4386 62.8067 11.0529 62.8282 10.9743C62.9082 10.6853 62.9033 11.0388 62.9565 10.8456C63.0092 10.6537 62.9866 10.3559 63.0654 10.3702C63.0631 10.5576 62.9397 11.0317 62.9898 11.1179C63.1811 11.4442 63.6582 11.1216 63.8508 11.1061C64.0387 11.0902 64.0939 11.1317 64.2101 11.0785C64.4201 10.9823 64.3061 11.3316 64.4051 11.5102C64.5053 11.6889 64.5551 10.8007 64.5957 10.6135C64.6358 10.4262 64.6304 10.6234 64.6642 10.5219C64.6979 10.4204 64.6683 10.2861 64.7224 10.253C64.7764 10.22 64.8714 10.5734 64.8655 10.7736C64.8525 11.1978 64.7372 11.6308 64.8895 11.4921C64.8982 11.4838 64.9015 11.2491 64.9331 11.2291C65.1809 11.0779 65.4287 11.0957 65.6728 10.9636C65.7068 10.9451 65.708 10.6839 65.7281 10.6702C65.9377 10.5269 65.8201 10.9541 65.8717 11.4493C65.9199 10.8034 66.023 10.4166 66.1685 10.4289C66.2549 10.4359 66.2092 10.7152 66.2437 10.9194C66.2541 10.9809 66.3367 10.7947 66.3336 10.9281C66.3237 11.3641 66.2125 11.8414 66.3847 11.6651C66.3923 11.6567 66.3966 11.4179 66.4211 11.4061C66.5792 11.3282 66.5505 11.7822 66.703 11.8536C66.8229 11.9096 67.0761 11.6569 67.2237 11.6264C67.2934 10.9021 67.4092 11.0811 67.4146 11.5857C67.5089 11.5744 67.6064 11.6124 67.7032 11.552C67.7365 11.5314 67.7362 11.3198 67.7423 11.2975C67.8361 10.9478 67.8307 11.4375 67.8483 11.4584C68.0452 11.6639 68.2553 11.3118 68.4319 11.6906C68.438 11.7042 68.4049 12.2087 68.4925 11.846C68.4982 11.8209 68.451 11.5859 68.5489 11.5767C68.647 11.5675 68.8528 11.3135 68.969 11.5583C68.9885 11.5992 69.018 11.8112 69.0658 11.8335C69.0838 11.838 69.1394 11.833 69.1579 11.8352C69.1806 11.8422 69.2019 11.8116 69.2179 11.7122C69.2248 11.6682 69.2077 11.5239 69.2166 11.4427C69.2448 11.1839 69.2949 11.6929 69.3201 11.2568C69.3455 10.8207 69.4215 10.4908 69.5749 10.7804C69.5797 10.7888 69.6398 11.1906 69.6824 11.181C69.7502 11.1655 69.8404 11.0739 69.9115 11.0705C69.9457 11.0691 69.945 11.3215 69.9513 11.3255C70.1954 11.4461 70.3403 11.2066 70.5739 11.0828C70.616 11.0597 70.7865 11.3852 70.8412 11.1053C70.9003 10.7989 70.6516 9.58639 70.8983 9.85121C70.9954 9.95717 71.32 11.4938 71.3659 10.6678C71.7011 10.823 71.9173 10.3688 72.2681 10.6016C72.2838 10.6119 72.3995 11.0357 72.4315 11.0243C72.4778 11.0067 72.4702 10.8008 72.5022 10.7817C72.6362 10.6965 72.7976 10.8458 72.9313 10.7945C72.9823 10.7754 72.9272 10.5707 72.9877 10.5479C73.0477 10.5254 73.1386 10.7917 73.2004 10.644C73.246 10.5317 73.2074 9.96086 73.2806 9.88007C73.3854 10.431 73.4403 10.4092 73.5714 10.5355C73.5967 10.56 73.6108 10.7559 73.6246 10.7774C73.6818 10.8691 73.6877 10.7035 73.744 10.8044C73.7577 10.8286 73.7931 11.0168 73.8063 11.0472C73.9195 11.313 73.9439 10.8701 73.9466 10.7933C73.9605 10.5008 74.0378 10.7397 74.0686 10.6198C74.0994 10.4998 73.9963 10.3766 74.0439 10.2983C74.1404 10.1368 74.306 10.1368 74.4297 10.1042C74.4796 10.0923 74.4932 10.3499 74.5015 10.3541C74.6183 10.3977 74.6703 10.1109 74.8249 10.5997C74.6491 9.29276 74.9107 10.7133 75.0099 10.4257C75.0176 10.4025 74.9148 9.7883 74.8525 9.70721C74.7902 9.62621 74.7596 9.83028 74.6708 9.70226C74.6495 9.6723 74.4549 9.11557 74.4368 9.08303C74.2951 8.82896 74.4579 9.74512 74.4627 9.79624C74.5121 10.3483 74.2904 9.75073 74.2556 9.71314C74.0952 9.54114 74.0136 9.68982 73.8841 9.56973C73.7989 9.49238 73.6796 8.89467 73.6304 8.92292C73.4664 9.01645 73.561 9.86368 73.2602 9.16963C73.1961 9.02155 73.111 8.35995 73.0794 8.8983C73.0774 8.93224 73.0688 9.42093 72.9608 9.13248C72.9473 9.0961 72.9128 8.90505 72.901 8.89061C72.822 8.79771 72.8091 8.95721 72.731 8.89594C72.6538 8.83453 72.5546 8.73999 72.4928 8.81772C72.4557 8.86421 72.4593 9.23073 72.4531 9.32169C72.4357 9.58363 72.3002 9.18252 72.3143 9.49348C72.3282 9.80605 72.4828 10.258 72.4151 10.473C72.3271 9.97634 72.2322 9.46736 72.1418 8.96821C71.9291 9.02217 71.7435 9.21758 71.5249 9.22859C71.4977 9.22945 71.4839 8.95726 71.4538 8.95123C71.3283 8.9268 71.2521 9.13346 71.1175 9.07481C71.0133 9.02836 70.8704 8.75814 70.764 8.69912C70.7786 9.27935 70.6055 9.10384 70.5062 9.16859C70.4711 9.19108 70.4914 9.34389 70.4704 9.39695C70.3905 9.59332 70.3803 9.08109 70.3441 9.00442C70.1911 8.67673 70.3052 9.82562 70.159 9.8118C70.1508 9.81155 70.0006 9.20795 69.9853 9.17085C69.8842 8.92939 69.9925 9.38533 69.9475 9.43516C69.8655 9.5261 69.8139 9.67811 69.6937 9.50691C69.6581 9.45621 69.5569 9.07932 69.5192 9.37939C69.5142 9.41869 69.5329 9.62127 69.5274 9.6336C69.4253 9.83972 69.3796 9.20207 69.303 8.99001C69.2269 8.77796 69.1538 9.22375 69.1392 9.35178C69.1025 9.68305 69.1877 9.49003 69.1923 9.52206C69.2477 9.90375 69.1696 9.84184 69.1138 9.87706C69.1259 10.2132 69.1071 10.3593 69.0876 10.336L69.1908 10.3379C69.1761 10.3158 69.1778 10.1686 69.2136 9.91228C69.2162 9.89431 69.2217 9.88718 69.2286 9.88531L69.0663 9.88235C69.0811 9.87589 69.1066 9.89755 69.1138 9.87706C69.0924 9.71484 69.0705 9.5904 69.0487 9.50587L69.26 9.50973C69.2267 9.26937 69.1512 9.33272 69.0401 9.74691C68.9693 10.0111 68.9875 10.3278 68.8519 10.2008C68.7905 10.1434 68.8534 9.71581 68.806 9.59358C68.699 9.3148 68.49 9.70015 68.3586 9.62438C68.3111 9.5969 68.381 9.36615 68.3494 9.33926C68.2657 9.26718 68.1705 9.43629 68.0898 9.33748C68.0826 9.32823 68.1255 9.08396 68.0982 9.07821C67.8888 9.02954 67.6871 9.169 67.4681 9.15147C67.3607 9.14276 67.1817 8.98742 67.0692 9.00324C66.876 9.0295 66.5969 9.36123 66.4436 9.25658C66.3432 9.18936 66.3936 8.9461 66.3668 8.77365C66.3157 8.43946 66.0924 9.0031 66.0613 9.09075C66.0603 9.09366 66.1463 9.16197 66.0827 9.28258C66.0245 9.54219 66.0622 9.092 66.0613 9.09075C66.0407 9.14735 65.8507 9.18229 65.8201 9.13115C65.8033 9.10323 65.841 8.87173 65.8318 8.86157C65.6095 8.625 65.3734 8.53722 65.1103 8.61577C65.1053 8.61993 65.0805 8.88091 65.0692 8.88746C64.91 8.98556 64.8567 8.65603 64.7627 8.45262C64.6678 8.24918 64.5644 8.30045 64.4381 8.738C64.3551 8.67048 64.2032 8.85169 64.1133 8.96186C64.0228 9.07195 64.0775 8.56463 64.0722 8.55379C63.9079 8.20719 63.7591 8.48227 63.5381 8.49898C63.4333 8.50786 63.2476 8.40848 63.1445 8.33832C63.0638 8.28213 62.9958 8.3936 62.927 8.30714C62.9177 8.29557 62.959 8.07195 62.9569 8.06284C62.9055 7.78163 62.8731 8.33759 62.8416 8.4334C62.7271 8.78178 62.6615 8.96671 62.5692 8.78286C62.5479 8.74074 62.5799 7.93813 62.5388 7.88528C62.4851 7.81801 62.4693 8.10512 62.4143 8.02746C62.4096 8.02108 62.4348 7.84609 62.3941 7.84834C62.2033 7.85619 61.9861 7.92984 61.7948 7.88521C61.7683 7.87974 61.8414 7.6068 61.8038 7.59434C61.6274 7.53611 61.4316 7.51911 61.2358 7.62415C61.1879 7.65094 61.1877 7.84919 61.1702 7.90561C61.0635 8.24684 61.0537 7.72788 61.0417 7.71634C60.7518 7.42692 60.4399 7.85153 60.1403 7.58719C60.1238 7.57181 60.0581 7.00811 59.9321 7.46652C59.9236 7.49699 59.7971 7.96629 59.7878 7.63235C59.7872 7.61146 59.8588 7.37071 59.7889 7.38673C59.7173 7.40248 59.6302 7.22344 59.5018 7.4814C59.4605 7.56256 59.3308 8.03043 59.2915 7.63854C59.2895 7.61126 59.265 6.73374 59.1393 7.32054C59.1188 7.41716 59.0454 8.04581 58.9831 7.71059C58.9711 7.64562 59.0258 7.51031 58.9838 7.41604C58.9183 7.27066 58.7886 7.42509 58.7233 7.13288C58.7122 7.0812 58.6897 6.64556 58.5884 6.9617C58.5727 7.01123 58.5653 7.22317 58.5303 7.24275C58.3644 7.33687 58.2225 7.17788 58.049 7.3055C57.9883 7.35038 57.9784 7.69298 57.9116 7.77768C57.8459 7.86244 57.7198 7.93736 57.6763 7.77588C57.6322 7.61427 57.7549 7.07966 57.6679 7.02688C57.2853 6.79746 56.8497 7.07977 56.4299 7.10129C56.3668 7.10455 56.4303 6.91305 56.3375 6.9041C56.0372 6.87307 55.513 6.71066 55.1739 6.97713C53.7166 7.23069 52.3356 8.16231 52.5927 9.61902C52.6251 9.6623 52.6639 9.70205 52.7099 9.73739C53.049 9.99301 53.2913 9.65613 53.4323 9.84759C53.4996 9.93111 52.8722 10.0597 52.8536 10.0846C52.6627 10.3101 52.9529 10.4345 52.8818 10.6257C52.867 10.6641 52.6083 10.6486 52.5986 10.681C52.5628 10.7903 52.6877 10.9021 52.6759 11.0005C52.6702 11.0464 52.4744 11.0566 52.4934 11.0971C52.537 11.1956 52.6276 11.2746 52.82 11.3503C52.8376 11.3572 53.074 11.274 53.0905 11.345C53.1168 11.4637 53.3116 11.5806 53.1406 11.7358C53.089 11.7816 52.6443 11.8341 52.9608 11.8814C53.027 11.8916 53.5587 11.8086 53.108 11.9576C53.033 11.9812 52.4298 12.2221 52.84 12.2514C52.948 12.2598 53.3912 12.2616 53.328 12.3161C53.3178 12.3237 53.076 12.3265 53.0572 12.3679C52.9959 12.5176 53.0371 12.6463 52.9794 12.7971C52.9635 12.8371 52.7096 12.811 52.6938 12.8697C52.6492 13.0244 52.7356 13.2094 52.8305 13.3434C52.866 13.393 53.0661 13.3312 53.0889 13.3323C53.4587 13.3501 52.9744 13.4474 52.9485 13.4719C52.7939 13.6243 53.0358 13.6951 52.9895 13.8204C52.9774 13.8552 52.7414 13.8606 52.7214 13.8697C52.5267 13.9627 52.9391 13.8605 52.9906 13.8979C53.1364 14.0044 53.134 14.1398 53.1191 14.2642C53.1133 14.3102 52.8368 14.2933 52.8347 14.3343C52.8181 14.5833 52.8731 14.8176 53.0508 15.0345C53.0846 15.0737 53.2895 15.0215 53.3381 15.0246C53.6782 15.0454 53.2356 15.1918 53.1949 15.2182C53.0092 15.3381 53.1979 15.3534 53.1739 15.4438C53.052 15.8703 53.2356 16.3739 53.3556 16.7482C53.5123 17.2485 53.7548 17.6133 53.7577 18.105C53.7581 18.1365 53.4774 18.136 53.4742 18.1636C53.445 18.5086 53.5913 18.8421 53.5473 19.1865C53.5443 19.2152 53.2769 19.2031 53.2632 19.2501C53.2331 19.3468 53.2601 19.4634 53.3542 19.5498C53.3996 19.5919 53.6186 19.5058 53.6597 19.5484C53.7555 19.6442 53.7862 19.7558 53.7556 19.8701C53.742 19.9188 53.4655 19.8765 53.4688 19.9376C53.4863 20.362 53.4809 20.7656 53.8714 21.1493C53.8982 21.1753 54.4477 21.1455 54.3489 21.217C54.1975 21.2368 54.0189 21.2543 53.8569 21.2725C53.8304 21.8919 54.077 22.4635 54.163 23.0675C54.1666 23.0932 53.8724 23.0757 53.8779 23.1256C53.9094 23.4181 53.8535 23.6908 54.1688 23.9632C54.1996 23.9901 54.7086 23.9288 54.6393 24.0228C54.6267 24.0403 54.5701 24.1747 54.4622 24.2172C54.4459 24.2232 54.2056 24.2213 54.2023 24.2629C54.1875 24.5046 54.2642 24.7536 54.4312 24.9869C54.4585 25.0235 54.7087 24.9604 54.7303 24.9861C54.8819 25.168 54.7073 25.3979 54.9538 25.568C55.1198 25.6819 55.5545 25.5977 55.9921 25.6292C56.0539 25.6336 56.0702 25.7123 56.3218 25.6953C56.9546 25.6527 57.6432 25.5557 58.318 25.5148C58.4634 25.5059 58.3162 25.6267 58.6614 25.5335C58.6844 25.527 58.7942 25.4393 58.9115 25.4101C58.9926 25.3898 59.2502 25.3923 59.3531 25.3561C59.456 25.32 59.2392 25.3082 59.3591 25.2528C59.4804 25.1972 59.7728 25.1922 59.7996 25.0997ZM63.7082 9.45349C63.6079 9.68748 63.714 8.79644 63.7601 9.01894C63.7622 9.03075 63.7133 9.44203 63.7082 9.45349ZM71.8516 9.88507C71.8241 10.2902 71.6739 9.72459 71.6884 9.41295C71.7023 9.10171 71.8594 9.76233 71.8516 9.88507ZM72.8223 10.0139C72.7716 10.3397 72.535 9.08942 72.6904 9.32315C72.6994 9.33632 72.8252 9.99493 72.8223 10.0139ZM56.0884 25.3049C56.1004 25.3048 56.1168 25.3602 56.1051 25.3626C55.8237 25.4168 55.7912 25.3061 56.0884 25.3049ZM73.8019 10.1542C73.8006 10.3296 73.6692 10.152 73.6708 9.93401C73.672 9.75862 73.8031 9.93617 73.8019 10.1542ZM59.9633 9.90512C59.9603 9.91821 59.9187 9.92459 59.9299 9.84984C59.966 9.60908 60.0123 9.68486 59.9633 9.90512ZM75.3764 9.86797C75.1548 9.95953 75.21 11.0193 75.4426 10.8536C75.4844 10.8237 75.2798 10.5437 75.3205 10.4393C75.3945 10.2492 75.5895 10.8837 75.6328 10.5152C75.6404 10.4478 75.3885 9.86047 75.3758 9.86661C75.376 9.86706 75.3762 9.86751 75.3764 9.86797ZM63.5294 10.5171C63.5264 10.5286 63.4697 10.5326 63.4699 10.5207C63.477 10.2344 63.5911 10.2263 63.5294 10.5171ZM57.5483 10.1565C57.5423 10.1812 57.4108 10.191 57.4092 10.1674C57.3895 9.6969 57.6588 9.67603 57.5483 10.1565ZM67.2279 11.6073C67.26 11.8985 67.3302 11.9394 67.4143 11.5861C67.3516 11.5991 67.2903 11.5958 67.2279 11.6073Z" fill="black"/>
<path d="M55.7791 13.1527C56.6134 13.8742 57.8058 14.7438 58.7279 15.3986C59.0194 15.6061 58.9891 15.3683 59.193 15.5054C59.5903 15.7737 59.8771 16.1375 60.2741 16.4022C60.407 16.4903 60.4332 16.172 60.569 16.269C61.3156 16.8064 61.8974 17.451 62.5955 18.0629C66.0396 21.0926 69.1286 24.4399 72.1436 28.0222C73.136 29.2024 74.4613 30.5529 75.3148 31.8965C75.4124 32.0508 75.1696 32.093 75.1752 32.1317C75.2785 32.7496 75.5305 32.3368 75.7888 32.5951C76.8129 33.6242 77.7268 34.9308 78.3635 36.1383C78.6263 36.6447 77.9528 36.3749 78.4599 36.746C78.4949 36.7728 78.6225 36.5263 78.725 36.6516C78.9556 36.9303 79.2287 37.5161 79.3642 37.7546C79.4177 37.8451 79.4578 37.9152 79.4906 37.9745C79.6278 38.2299 79.6832 38.3551 79.83 38.7085C80.0855 39.3199 80.4509 40.0446 80.5888 40.7624C80.6174 40.9156 80.3323 40.7798 80.3556 41.0283C80.3797 41.2722 80.5461 41.8985 80.6447 42.1051C80.7451 42.3114 80.9111 42.1804 80.9615 42.2105C81.3881 42.4584 81.018 43.3104 81.018 43.4087C81.0755 45.2115 81.4587 46.7343 81.493 48.4668C81.5159 49.7724 81.3901 51.1765 81.3442 52.4284C81.2898 53.9228 81.3247 55.1992 81.1683 56.6506C81.152 56.8025 80.887 56.5979 80.8664 56.7833C80.6455 58.7663 80.438 60.738 80.3549 62.7443C80.3466 62.9466 80.6283 62.7229 80.6346 62.9276C80.6365 62.9983 80.6388 63.0717 80.6414 63.1472C80.7078 64.3519 80.6804 66.1784 79.511 66.5407C79.3431 67.3217 79.0837 68.2524 79.0343 69.0008C78.9999 69.4868 79.4161 69.161 79.0986 69.6556C79.0267 69.7663 78.8689 69.5229 78.778 69.6938C78.3942 70.4154 78.0952 71.2566 77.6224 71.9189C77.5255 72.0538 77.3565 71.917 77.3015 71.9407C76.8534 72.1403 76.9974 72.9449 76.9584 73.0884C76.6708 74.165 76.1532 74.7889 75.598 75.6331C75.4684 75.8288 75.3864 75.44 75.2537 75.6212C74.5676 76.5622 73.8635 77.5482 73.2438 78.5302C73.1066 78.7488 73.4437 78.7158 73.3875 78.8282C73.1333 79.3251 72.7033 79.1255 72.4462 79.5917C72.3915 79.6893 72.591 79.7747 72.5958 79.8048C72.6702 80.2761 72.1021 80.1605 72.0419 80.2142C71.2627 80.8946 71.2277 81.7374 70.5072 82.437C70.4206 82.5201 70.4028 82.1438 70.1718 82.3877C69.6853 82.9005 69.1978 83.4316 68.7186 83.981C67.9735 84.8661 66.6367 85.3762 65.2375 85.6802C64.919 85.7486 65.1698 85.9195 65.1529 85.946C64.8506 86.3618 64.5815 85.8673 64.476 85.8551C63.6269 85.7715 62.8062 86.1879 62.2298 85.5645C62.0365 85.5704 61.8422 85.5732 61.6476 85.5737C58.4725 85.5533 55.7776 83.0851 53.2201 80.8651C53.1852 80.8335 53.0467 81.0595 52.9777 80.9951C52.1614 80.2175 52.5981 80.1258 52.5686 79.2735C52.5623 79.061 51.7866 78.9335 51.7211 78.9048C51.494 78.8362 51.2762 79.1925 51.2185 79.1573C51.1782 79.1311 51.1497 79.1032 51.131 79.0737C50.9321 78.7223 51.8804 78.3329 51.7816 77.9357C51.7761 77.9199 51.5682 78.0352 51.5366 77.9966C51.437 77.8709 51.506 77.7128 51.4161 77.5729C51.2148 77.256 50.6038 77.0687 51.012 76.4992C51.0688 76.4308 51.7387 76.6176 51.7965 76.0737C51.8087 75.8544 52.0729 74.8825 52.1312 74.5953C52.1376 74.5555 52.138 74.524 52.1338 74.4986C52.1046 74.3504 51.9019 74.4194 51.8989 74.4023C51.8797 73.6085 51.6707 73.8205 51.4587 73.2491C51.2892 72.6501 52.1374 73.296 52.3142 73.234C52.4846 73.172 52.624 72.5976 52.6681 72.4345C52.702 72.2728 52.4751 72.3044 52.5287 72.177C52.9365 71.3351 53.1559 72.2976 53.46 72.2462C54.1568 72.1771 54.1235 71.28 54.6389 70.9027C54.774 70.8046 54.7414 71.0251 54.8784 70.9693C55.1071 70.876 55.2777 70.7565 55.4521 70.6386C55.6737 70.487 55.9137 70.3472 56.3007 70.3478C56.4205 70.3413 57.0009 70.6528 57.2411 70.2598C57.2777 70.2024 57.1068 70.0362 57.3358 69.9495C57.6776 69.8163 58.3404 69.7138 58.738 69.7774C59.0308 69.8228 58.7004 70.1436 59.06 70.0454C59.2226 70.0036 58.9226 69.8107 59.2326 69.7491C59.5416 69.6833 60.334 69.755 60.6333 69.8021C60.9317 69.8454 60.7369 70.0663 60.7592 70.0855C60.8929 70.1948 61.4408 70.3953 61.489 70.4044C63.4722 70.757 65.4158 71.0108 67.371 71.4006C67.8726 71.5014 68.3715 71.6389 68.863 71.8191C69.0465 71.8866 68.8461 72.0928 68.8733 72.1056C69.4729 72.4101 69.1806 71.5992 69.7054 71.534C69.4731 72.0047 69.7674 72.0014 70.1934 72.2211C70.3966 72.3274 70.209 72.4719 70.2212 72.4985C70.4236 72.9025 70.7829 72.6235 70.8712 72.5721C71.1932 72.3826 71.2818 72.802 71.5006 72.6809C71.7212 72.5625 71.5108 72.1501 71.9342 72.3415C71.9752 72.5638 71.4689 72.8695 71.7503 73.0824C72.8095 73.8627 75.0943 74.7151 76 75.2724C76.9027 75.8106 77.1583 76.039 77.6968 76.3395C78.6642 76.8947 78.1221 76.9464 78.5638 77.4902C79.0003 78.0396 79.288 77.1395 79.4843 77.0505C79.6802 76.9623 79.6424 77.1831 79.8036 77.1782C79.965 77.1736 79.8388 76.9052 80.0892 77.0566C80.3423 77.2081 80.7312 77.9779 80.6757 78.1955C80.5619 78.6562 80.0102 78.7615 80.6733 79.1352C80.7117 79.1568 80.7614 78.8891 80.9008 78.9811C81.3092 79.254 81.7043 79.5581 82.0889 79.8747C82.7092 80.3787 83.1949 81.0506 83.6057 81.7611C83.6957 81.9176 83.873 81.6689 83.9287 81.7617C84.4777 82.7593 83.9179 82.5393 83.6048 83.2156C84.194 82.9261 84.6859 83.1513 84.8366 84.0117C84.9201 84.5241 84.6243 84.4762 84.4685 84.8247C84.4212 84.9267 84.653 85.263 84.5266 85.3397C84.1143 85.5966 83.6013 85.3046 83.87 86.1428C83.8825 86.1795 84.109 86.0394 84.1347 86.1676C84.1615 86.3027 84.173 86.4198 84.1737 86.5239C84.1456 86.9608 83.8008 87.0918 83.6072 87.7489C83.4268 88.3608 83.2764 89.6232 83.0135 90.3889C83.6971 90.6428 83.2482 91.3027 82.6645 91.3868C82.4757 91.8813 82.2175 92.3911 82.0709 92.8788C82.0188 93.0497 82.2587 93.0316 82.2701 93.0614C82.4493 93.5277 81.9135 93.5212 81.8465 93.6194C81.1534 94.6616 81.0424 95.7304 80.1913 96.6294C80.1614 96.66 79.6757 96.5019 79.8666 96.9449C79.8802 96.9746 80.2591 96.7317 80.0281 97.2324C79.7923 97.7427 79.5599 98.7994 78.9973 99.3814C78.8579 99.5295 78.283 99.7499 78.3903 100.24C78.4055 100.305 78.56 100.322 78.5976 100.425C78.7141 100.759 78.2055 100.63 78.4621 101.078C78.718 101.526 78.7413 102.186 78.11 102.746C78.0899 102.766 77.6463 102.74 77.5387 102.959C77.3669 103.308 77.1789 103.847 76.9876 104.204C76.8948 104.377 76.731 104.148 76.711 104.176C75.9704 105.277 75.7281 106.212 75.1507 107.503C75.0446 107.742 74.3921 108.237 74.3955 108.807C74.3963 109.24 75.043 109.412 75.1603 109.802C75.1544 109.814 75.1338 109.848 75.1271 109.86C75.1679 110.039 75.0987 110.255 74.8136 110.54C74.4455 110.908 72.7738 110.627 72.9685 111.835C71.8445 113.233 71.3033 114.836 70.073 116.17C70.0174 116.231 69.5123 116.201 69.4137 116.359C69.2695 116.593 69.3501 116.839 69.2497 117.013C68.8382 117.735 68.253 118.282 67.8207 118.953C67.6517 119.213 67.8864 119.246 67.6873 119.552C67.4918 119.851 67.1159 119.902 66.9433 120.377C66.8056 120.746 67.0531 121.376 66.8097 121.823C66.3473 121.505 66.1506 121.796 65.6749 122.187C65.5808 122.265 65.5005 122.046 65.448 122.077C65.2309 122.2 65.2373 122.461 65.0234 122.562C64.9705 122.588 64.8165 122.474 64.7649 122.488C64.3241 122.603 64.3038 123.331 64.3011 123.455C64.2809 123.942 63.9798 123.919 63.8738 124.228C63.7721 124.531 64.163 124.273 63.9953 124.586C63.6464 125.236 63.0059 125.935 62.4951 126.472C62.2862 126.689 62.2479 126.363 62.2138 126.39C61.755 126.77 61.4234 127.409 60.8716 127.149C60.8917 127.216 60.908 127.277 60.9208 127.332C61.1554 128.354 60.4685 127.295 59.9052 127.905C59.8583 127.954 60.0697 128.55 60.359 128.494C60.6505 128.437 60.9049 128.041 61.2777 127.969C61.2872 127.967 61.3041 127.968 61.3267 127.971L61.3097 127.982C61.526 128.007 62.2035 128.075 62.2755 128.051C62.9399 127.848 62.336 127.115 62.3256 127.059C62.1767 126.443 63.0506 126.432 63.1913 126.341C63.8457 125.919 64.1512 125.35 64.6517 124.961C64.9835 124.698 65.4756 125.057 65.6647 124.789C66.2794 123.907 65.8125 123.112 66.9968 122.755C67.2476 122.679 67.6672 123.236 67.6907 122.315C67.6932 122.256 67.6362 121.518 68.0718 121.429C68.127 121.418 68.2841 121.532 68.3293 121.496C68.6286 121.258 68.6363 120.98 68.9288 120.693C69.2109 120.42 69.58 120.083 69.7776 119.68C69.9006 119.432 69.7985 118.941 69.7971 118.785C69.7916 118.341 70.3596 118.248 70.2282 117.89C70.0979 117.527 69.458 117.634 69.6253 117.026C70.0565 117.288 70.5151 117.534 70.9566 117.786C71.6738 116.684 72.2441 115.517 72.9747 114.426C73.0665 114.289 73.2032 114.578 73.3077 114.435C73.7413 113.841 73.9267 113.192 74.4004 112.588C74.7684 112.12 75.3593 111.719 75.7457 111.237C75.6051 110.935 75.6855 110.62 75.8428 110.304C75.8551 110.283 75.8927 110.221 75.9035 110.199C76.0478 109.855 76.2747 109.512 76.4102 109.2C76.5023 108.989 76.3589 108.93 76.3932 108.759C76.5243 108.117 76.8358 108.617 76.9873 108.503C77.6316 108.022 76.6463 107.416 77.0747 106.67C77.0958 106.633 77.9035 106.423 77.9738 106.373C78.4245 106.055 77.8228 106.2 77.9259 105.908C78.1094 105.384 78.1703 104.954 78.6307 104.467C78.7684 104.32 79.3243 104.087 79.2324 103.623C79.2205 103.562 79.0279 103.492 79.0355 103.452C79.1929 102.723 79.7678 103.003 80.1468 102.744C80.5296 102.479 80.429 101.715 80.3732 101.546C80.2368 101.094 80.1307 101.708 80.0944 101.708C79.6566 101.718 79.922 101.35 80.0584 101.016C79.5258 100.681 79.7835 100.264 80.1981 100.677C80.2432 100.723 80.0658 100.939 80.0584 101.016C80.7471 101.022 81.0644 100.579 80.8259 99.7839C80.713 99.4128 80.3113 99.5108 80.8013 98.8006C81.0215 98.4811 81.3368 98.8136 81.597 98.5593C82.1886 97.9837 82.2817 96.8937 82.6884 96.2029C82.8382 95.9477 82.9246 96.31 83.0347 96.138C83.325 95.6866 83.3697 95.183 83.6767 94.7436C83.7055 94.7024 83.8778 94.9171 83.9529 94.7645C84.5186 93.6209 84.8262 92.5604 85.3315 91.29C85.5759 90.6812 86.1133 89.612 86.2843 88.8688C86.4335 88.1833 86.5515 87.4184 86.3899 86.3163C86.2643 85.7884 86.1607 85.2166 86.1441 84.7331C86.1166 84.056 86.3759 84.1653 86.4978 83.8414C86.7388 83.1999 85.9015 82.2546 85.7665 82.1557C85.7665 82.154 85.8722 82.7731 85.6637 82.4841C85.359 82.3706 85.7677 82.1643 85.7665 82.1557C85.7015 82.0783 85.2102 80.8918 85.1122 80.6382C85.0722 80.4982 85.3174 80.4659 85.2911 80.3931C84.9866 79.5654 84.4927 78.744 83.8183 78.062C83.2652 77.4897 82.6641 76.9623 82.0173 76.4853C81.9937 76.4714 81.8544 76.697 81.8012 76.662C81.0533 76.1802 80.8158 75.5802 80.348 74.9788C79.8801 74.3796 79.3602 74.0836 78.7474 74.2019C78.3289 73.8357 77.558 73.5596 77.1108 73.4184C76.6644 73.2769 76.8789 72.8121 76.8499 72.7817C75.942 71.8461 75.1506 71.7317 73.9583 71.1792C73.3912 70.9146 72.286 70.3309 71.6627 70.0288C71.1709 69.7855 70.8219 69.7843 70.3687 69.5478C70.3071 69.516 70.4459 69.3233 70.4288 69.3083C69.9727 68.8693 70.0595 69.4846 69.9181 69.5424C69.4041 69.7583 69.1171 69.8662 68.4673 69.5214C68.3617 69.4654 68.1847 68.9883 67.9747 68.6839C67.905 68.5671 67.8331 68.4762 67.7609 68.4465C67.4285 68.3107 67.4941 68.6195 67.1453 68.4686C67.1152 68.4559 67.162 68.2853 66.9334 68.2408C65.8761 68.0328 64.6876 67.8539 63.53 67.5979C63.3706 67.5636 63.6319 67.3305 63.4015 67.2766C62.324 67.0253 61.0599 66.823 59.8484 66.8834C59.552 66.9001 59.7265 67.1065 59.6598 67.1613C59.2618 67.4916 58.7075 66.9823 58.6028 66.9769C57.0132 66.8443 55.5215 67.3295 54.1377 68.1024C53.6805 68.3639 53.1255 68.6453 52.4732 68.984C52.3737 69.0206 51.1611 69.2012 51.0978 69.9145C51.0867 69.9661 51.0773 70.6243 50.5507 70.7272C50.5164 70.7371 50.5388 70.3276 50.1953 70.768C49.8591 71.1979 49.1903 71.9093 49.1392 72.7307C49.1279 72.8832 49.2049 73.1845 49.1683 73.5055C49.1545 73.6943 49.079 73.8915 48.8611 74.0757C48.8244 74.0847 47.7398 74.7875 48.2651 75.2641C48.3543 75.3431 48.9715 75.3842 48.5466 76.0653C48.4668 76.2022 48.3568 75.9168 48.2257 76.2971C48.0309 76.8976 48.1569 77.731 48.0825 78.7328C48.0578 78.8837 47.8452 79.8136 48.4926 80.3145C48.5905 80.3852 48.6741 80.1094 48.8736 80.4063C48.8827 80.4194 48.8918 80.4324 48.901 80.4454C49.5099 81.2271 49.9774 82.0887 50.6931 82.7284C50.9492 82.9551 51.1 82.6045 51.3931 82.8059C51.6864 83.0091 52.216 83.4569 52.3568 83.8209C52.5021 84.1904 51.8287 84.2876 52.1955 84.7126C53.817 86.5481 56.0692 87.8432 58.6662 88.6372C59.0568 88.749 58.6719 88.8441 59.2618 89.0081C59.8748 89.1702 60.6438 89.3286 61.4953 89.3757C63.1509 89.4918 65.2938 89.4484 66.5703 88.8857C67.9577 88.2513 66.0904 88.4045 67.143 88.026C67.6291 87.8433 68.4204 88.2246 68.5757 88.18C69.7607 87.8773 70.5595 87.1373 71.3136 86.28C71.4045 86.175 71.503 86.0706 71.6132 85.9675C71.7553 85.8346 71.8205 86.1473 71.9396 86.0321C72.3435 85.6455 72.6585 85.1214 73.0344 84.7296C73.2044 84.5531 73.3226 84.7151 73.4601 84.5369C73.7927 84.1096 74.0501 83.691 74.2587 83.1684C74.2776 83.1209 73.88 83.2086 74.1364 82.8975C74.5531 82.3924 74.9388 81.6545 75.562 81.183C75.7474 81.0432 76.1042 81.3161 76.1658 80.7418C76.1786 80.6208 75.6764 80.3921 76.3915 80.2313C76.5096 80.2079 77.5972 79.8186 77.5525 79.1909C77.5409 79.027 77.3708 78.5123 77.5857 78.3282C77.6162 78.3041 77.7262 78.5654 77.877 78.3926C78.4075 77.7763 78.8568 77.0556 79.3631 76.3812C79.4984 76.2012 79.5345 76.6173 79.73 76.3428C80.2694 75.5866 80.785 74.5354 81.1246 73.6846C81.2493 73.3712 80.9606 73.4867 80.9517 73.4545C80.7982 72.9453 81.3395 72.9525 81.4225 72.8448C81.9245 72.1828 81.96 71.5158 82.2926 70.843C82.3836 70.656 82.5486 70.8784 82.5832 70.8476C82.9302 70.5178 82.4209 70.6666 82.4744 70.3956C82.6194 69.6405 82.9062 68.846 83.1506 68.1175C83.2404 67.8495 83.4134 68.2313 83.4909 67.9878C83.9382 66.5949 84.2302 65.0884 84.2902 63.6567C84.2919 63.6099 84.2934 63.5632 84.2948 63.5166C84.3019 63.2562 84.0718 63.3889 84.0317 63.329C83.7508 62.9147 84.274 62.4504 84.3339 62.3285C84.6057 61.7867 84.4483 61.554 84.5451 61.0576C85.0213 58.6552 85.1956 55.6094 85.2414 53.2667C85.2985 50.2139 85.1221 47.821 84.9024 44.8346C84.8868 44.6436 85.1834 44.8088 85.1731 44.6432C85.022 42.5028 84.5335 40.3854 83.8652 38.2084C83.8091 38.03 84.1494 38.1993 84.065 37.9054C83.9105 37.3639 83.6365 36.7091 83.3234 36.19C83.2877 36.1303 83.2513 36.072 83.2143 36.0152C83.0353 35.7423 83.023 36.2311 82.8467 35.9568C82.441 35.3379 82.0537 34.7101 81.74 34.1132C81.6025 33.8529 82.0662 34.0916 81.8669 33.7612C80.5272 31.5562 79.146 29.5635 77.3534 27.7732C77.2273 27.6471 76.705 27.8681 76.5681 27.5166C76.6725 27.402 76.8157 27.2938 76.9378 27.185C74.8135 24.2809 72.3893 21.6801 69.9463 19.0376C69.8432 18.9261 70.2355 18.9241 70.0364 18.707C68.8839 17.452 67.7953 16.19 66.3518 15.1579C66.2085 15.0553 65.9104 15.4804 65.6028 15.0675C65.5495 14.9941 65.0486 14.4094 64.9805 14.1907C64.9726 14.1598 65.2402 14.0853 65.0654 13.9075C64.0476 12.8793 62.8862 11.8911 61.6818 11.0543C61.4882 10.9208 61.5123 11.276 61.3733 11.1831C60.3846 10.5183 59.5027 9.5629 58.4393 9.06357C57.7357 8.73972 57.703 9.26283 57.1246 9.38137C57.0428 9.39741 56.6578 9.14029 56.4958 9.33576C56.0879 9.82459 55.87 10.518 55.4132 11.0238C55.3148 11.1315 54.9313 10.6815 55.0126 11.162C55.0187 11.1939 55.2938 11.5255 55.3093 11.6832C55.3201 11.7918 55.0677 11.9275 55.1251 12.0973C55.1807 12.266 55.4418 12.1881 55.5582 12.4266C55.676 12.6689 55.4182 12.8394 55.7791 13.1527ZM75.0926 72.8308C74.6122 72.8419 74.9909 72.026 75.284 72.4363C75.2977 72.4572 75.1172 72.831 75.0926 72.8308ZM71.6692 115.153C71.6282 114.492 72.3113 114.507 72.366 114.985C72.4152 115.47 71.6818 115.354 71.6692 115.153ZM68.3711 119.541C68.4677 118.855 69.5692 119.499 68.9793 119.898C68.9449 119.922 68.3651 119.582 68.3711 119.541ZM58.5263 10.5759C58.5141 10.5813 58.2493 10.3924 58.2477 10.3767C58.2809 10.0428 58.8196 10.4275 58.5263 10.5759ZM64.9024 123.749C64.8864 123.491 65.3815 123.173 65.4059 123.493C65.426 123.75 64.9222 124.072 64.9024 123.749ZM54.4412 70.5115C54.4418 70.526 54.2433 70.6518 54.2096 70.5845C54.102 70.3645 54.4268 70.2621 54.4412 70.5115ZM57.6238 129.387C58.9257 128.875 59.2292 127.585 57.9489 128.227C57.7094 128.341 58.5972 128.337 58.3194 128.546C57.7973 128.931 57.1945 128.441 56.7069 128.974C56.6178 129.073 57.5509 129.419 57.6265 129.387C57.6256 129.387 57.6247 129.387 57.6238 129.387ZM74.3594 73.6551C74.3469 73.6613 74.0583 73.5152 74.0568 73.5015C74.0383 73.1662 74.6249 73.4628 74.3594 73.6551ZM53.5912 81.6608C53.6187 81.658 54.1403 82.1743 54.1432 82.2058C54.081 82.8167 52.999 81.7497 53.5912 81.6608ZM83.0268 90.4079C82.6299 90.6293 82.4418 90.9916 82.6647 91.3852C82.7825 91.0609 82.9116 90.7432 83.0268 90.4079Z" fill="black"/>
</svg>
