<svg width="97" height="124" viewBox="0 0 97 124" fill="none" xmlns="http://www.w3.org/2000/svg">
<path d="M63.1031 24.1415C63.1206 23.9179 63.3077 23.7136 63.5006 23.571C63.5606 23.5264 63.6907 23.6237 63.7386 23.5961C63.832 23.5421 63.796 23.4349 63.8993 23.3877C63.9343 23.3724 64.1474 23.5113 64.1788 23.4928C64.3495 23.3904 64.3553 23.2268 64.4751 23.0974C65.0639 22.4644 65.4951 21.7753 65.9553 21.0806C66.1107 20.8434 66.4562 20.6526 66.4913 20.3502C66.4951 20.315 66.2874 20.2367 66.2738 20.2231C66.0659 20.0122 66.4533 20.2362 66.5348 20.2039C66.8566 20.0766 66.9977 19.8326 67.0295 19.5727C67.0419 19.4628 66.6014 19.3641 66.8689 19.3781C66.887 19.3789 67.0865 19.5055 67.1215 19.4909C67.2004 19.4575 67.2159 19.3304 67.2543 19.294C67.331 19.2215 67.336 19.2059 67.3791 19.124C67.4399 19.013 67.61 18.9312 67.6206 18.7893C67.6222 18.7587 67.3897 18.6859 67.3728 18.6275C67.356 18.569 67.4294 18.4663 67.4983 18.4548C67.5675 18.4429 67.7294 18.5423 67.7715 18.555C68.1263 18.663 67.7336 18.3134 67.7302 18.2919C67.6816 17.9081 68.0697 17.7758 68.2049 17.5024C68.3109 17.2871 68.3325 17.0305 68.4473 16.8308C68.5809 16.6012 68.7989 16.4581 68.8947 16.2184C68.905 16.1934 68.6381 16.0941 68.6501 16.0633C68.7798 15.7333 68.9665 15.433 69.2953 15.2078C69.3283 15.1857 69.5296 15.338 69.5758 15.3227C69.8569 15.2202 70.4448 15.1466 69.5415 14.5367C69.646 14.4245 69.7628 14.2917 70.0179 14.2714C70.1812 14.2601 70.3853 14.4556 70.3291 14.3116C70.3166 14.2794 70.0918 14.1984 70.0891 14.1582C70.076 13.993 70.2214 13.8774 70.1762 13.6962C70.1666 13.6588 69.9737 13.5695 69.9434 13.5448C69.6978 13.3445 70.2094 13.468 70.2537 13.463C70.5876 13.4183 70.5562 13.2388 70.642 13.0841C70.6619 13.0484 70.3855 12.9628 70.3954 12.924C70.454 12.7171 70.5712 12.5383 70.7739 12.4147C70.8193 12.3882 71.019 12.5324 71.0518 12.5253C71.1947 12.4907 70.7937 12.266 70.9222 12.2296C70.9488 12.2215 71.1308 12.3229 71.1528 12.3299C71.4988 12.4391 71.0625 12.1745 71.0587 12.1568C70.9999 11.9276 71.525 12.0604 71.5309 11.8727C71.5308 11.8506 71.2738 11.7784 71.2879 11.7236C71.3785 11.3675 71.5913 11.0531 71.8874 10.8161L72.4121 11.9755C72.4025 11.9641 72.3929 11.9525 72.3834 11.9407C72.3426 11.8911 72.4482 11.7193 72.4535 11.6953C72.5298 11.3174 72.3182 11.7837 72.295 11.7958C72.1126 11.8772 72.1179 11.4275 71.8331 11.974C71.3111 11.5816 70.6134 11.7502 70.1253 11.0715C70.1189 11.0634 70.1922 10.8226 70.1791 10.8076C70.0211 10.6243 69.9632 11.0123 69.7304 11.4482C69.672 11.5576 69.7071 10.9735 69.7077 10.9302C69.7115 10.7711 69.8289 10.4145 69.8252 10.3827C69.791 10.1315 69.524 11.339 69.4099 11.3132C69.4067 11.3104 69.4728 11.092 69.4681 11.0677C69.4538 10.9915 69.4035 11.0728 69.3911 10.9896C69.3632 10.7973 69.4709 10.2056 69.2874 10.5227C69.2642 10.5641 69.1306 11.253 69.0343 11.1975C68.9965 11.1748 68.808 11.1453 68.7654 11.0894C68.724 11.0338 68.8077 10.8208 68.8062 10.8104C68.7315 10.4879 68.8106 10.3785 68.8348 9.93075C68.858 9.48454 68.6534 10.5162 68.5996 10.6246C68.5459 10.7326 68.494 10.469 68.4877 10.3799C68.4808 10.2906 68.5425 10.157 68.5305 10.1048C68.4488 9.76262 68.3549 10.6008 68.2707 10.7533C68.0721 11.1148 68.1433 10.3324 68.0547 10.2353C68.0304 10.209 68.0165 10.3877 67.9875 10.3984C67.8733 10.4389 67.8623 10.1877 67.6993 10.3811C67.6731 10.4127 67.4831 10.8515 67.4942 10.5021C67.496 10.4518 67.5608 10.2669 67.5265 10.2151C67.476 10.1376 67.3651 10.0706 67.2837 10.1197C67.2228 10.1559 67.2147 10.4815 67.1712 10.3706C67.1518 10.321 67.2437 10.1491 67.2041 10.0713C67.1649 9.99368 67.0254 9.97245 66.971 9.96751C66.9169 9.96275 66.8953 10.2065 66.8876 10.2216C66.8422 10.3078 66.7192 10.4013 66.7102 10.3991C66.2539 10.3324 65.9329 9.84512 65.4666 9.88263C65.4306 9.88534 65.3988 10.1405 65.3928 10.1435C65.2537 10.2232 65.49 9.57759 65.4573 9.3372C65.3585 9.84764 65.3306 9.74528 65.2358 9.78294C65.19 9.80149 65.1688 10.0029 65.1608 10.0222C65.0363 10.3079 65.079 9.91308 65.0857 9.83185C65.1093 9.53286 64.9931 9.86679 65.0092 9.66699C65.0253 9.46869 65.1483 9.19653 65.0694 9.18303C65.0074 9.35992 64.9613 9.84762 64.8847 9.91147C64.5935 10.1527 64.2554 9.68656 64.0797 9.60617C63.9085 9.52694 63.8425 9.54709 63.7514 9.45738C63.587 9.29511 63.5747 9.66234 63.4206 9.79639C63.2654 9.93009 63.5222 9.07835 63.5481 8.88851C63.5744 8.69884 63.5121 8.88597 63.515 8.77902C63.518 8.67213 63.5918 8.55602 63.5522 8.50648C63.5128 8.45703 63.3027 8.75658 63.2398 8.94678C63.107 9.34985 63.0674 9.79617 62.9716 9.61374C62.9663 9.603 63.0434 9.38134 63.0205 9.35177C62.8394 9.1249 62.6005 9.05691 62.4162 8.84932C62.3906 8.82032 62.4787 8.57444 62.4645 8.55472C62.3165 8.34837 62.281 8.79007 62.0632 9.2378C62.2387 8.61437 62.274 8.2156 62.1331 8.17738C62.0495 8.1544 61.997 8.43254 61.8948 8.61264C61.864 8.66694 61.85 8.46367 61.8073 8.59009C61.6675 9.00319 61.6089 9.48975 61.5073 9.26525C61.5031 9.25472 61.5807 9.02887 61.5617 9.00936C61.4398 8.8821 61.3115 9.31861 61.1438 9.3335C61.012 9.34516 60.8603 9.02118 60.7321 8.94201C60.9142 8.23752 60.7442 8.36616 60.5666 8.83855C60.4819 8.79568 60.3773 8.79804 60.3069 8.70821C60.2827 8.67751 60.3553 8.47869 60.3572 8.45567C60.3886 8.09494 60.2262 8.55706 60.2026 8.57068C59.9473 8.69649 59.8702 8.29373 59.5747 8.58932C59.5644 8.60003 59.423 9.08548 59.4647 8.71466C59.4678 8.68917 59.5926 8.48443 59.5037 8.44233C59.4147 8.40017 59.3081 8.09104 59.1152 8.28143C59.083 8.31316 58.9827 8.50236 58.9302 8.50694C58.9118 8.50502 58.8611 8.48133 58.8431 8.47702C58.8194 8.47587 58.8098 8.43988 58.8288 8.34092C58.8373 8.29729 58.9027 8.16754 58.9221 8.08818C58.984 7.8353 58.7629 8.29646 58.8884 7.87806C59.0135 7.45952 59.0549 7.1236 58.8117 7.34325C58.8044 7.34953 58.6106 7.70653 58.5737 7.68299C58.5154 7.64526 58.4619 7.5283 58.3962 7.50085C58.3647 7.48781 58.279 7.72519 58.2716 7.72687C58.0011 7.75672 57.9467 7.48217 57.7695 7.28594C57.7379 7.24985 57.4664 7.49741 57.5106 7.2157C57.5599 6.90757 58.2081 5.8531 57.8857 6.01763C57.7583 6.08402 56.9279 7.41715 57.1671 6.62514C56.7991 6.65649 56.7512 6.15571 56.3419 6.25457C56.3236 6.25887 56.07 6.61763 56.0439 6.59598C56.0063 6.56358 56.0839 6.37271 56.0603 6.3438C55.9636 6.21795 55.7608 6.30303 55.6528 6.20917C55.6113 6.17379 55.7331 6.00024 55.684 5.95812C55.6353 5.91646 55.4589 6.13563 55.4513 5.97573C55.4468 5.85455 55.6782 5.33131 55.6371 5.23039C55.3503 5.71227 55.3061 5.67303 55.1397 5.74686C55.1076 5.76127 55.0274 5.94057 55.0071 5.95605C54.922 6.02269 54.973 5.86498 54.8856 5.94058C54.8645 5.95866 54.7668 6.12338 54.7441 6.14746C54.5468 6.35855 54.6753 5.93401 54.699 5.86091C54.786 5.58135 54.6316 5.77939 54.6437 5.65611C54.6558 5.53287 54.7948 5.45234 54.7768 5.36252C54.7413 5.17773 54.5857 5.12112 54.4806 5.04819C54.4378 5.01991 54.3369 5.25739 54.3277 5.25844C54.203 5.25958 54.2522 4.9722 53.9398 5.37874C54.5518 4.21064 53.8204 5.45613 53.8254 5.15202C53.8261 5.12758 54.1327 4.5855 54.219 4.53058C54.3053 4.47577 54.2642 4.67801 54.3915 4.58805C54.4217 4.56719 54.7949 4.11052 54.823 4.0861C55.043 3.89578 54.5769 4.70111 54.5549 4.7475C54.3197 5.24942 54.7323 4.76362 54.7779 4.74019C54.9874 4.63338 55.0133 4.80101 55.1761 4.73244C55.2825 4.68885 55.599 4.16796 55.6356 4.21132C55.7577 4.35527 55.3792 5.11911 55.8992 4.56973C56.0099 4.45245 56.3162 3.85984 56.1618 4.37656C56.1521 4.40913 55.993 4.87129 56.1932 4.63713C56.2184 4.6076 56.316 4.43982 56.332 4.43028C56.438 4.36998 56.3957 4.5243 56.49 4.4934C56.5836 4.46211 56.7091 4.40716 56.7406 4.50135C56.7596 4.55772 56.6308 4.90091 56.6056 4.98852C56.5324 5.24063 56.7969 4.90999 56.6773 5.1974C56.5574 5.48641 56.2576 5.85829 56.2478 6.08345C56.5003 5.64682 56.7634 5.20094 57.019 4.76276C57.2005 4.88618 57.3081 5.13326 57.5097 5.21834C57.535 5.22846 57.6411 4.97738 57.6713 4.98198C57.7976 5.00193 57.7986 5.2222 57.9451 5.21308C58.0589 5.20505 58.2856 4.99996 58.4058 4.98087C58.1937 5.52114 58.4164 5.4154 58.4876 5.5102C58.5129 5.54333 58.4416 5.67999 58.4431 5.73703C58.4511 5.94889 58.6357 5.47098 58.696 5.41131C58.9519 5.15568 58.4518 6.19633 58.5939 6.23332C58.6018 6.23592 58.9493 5.72003 58.9763 5.69037C59.1539 5.49803 58.8962 5.88946 58.9215 5.95169C58.9675 6.06518 58.964 6.22566 59.1355 6.10589C59.1863 6.07041 59.4102 5.75081 59.343 6.04568C59.3343 6.08434 59.2475 6.26832 59.2485 6.28179C59.2739 6.51038 59.5348 5.92677 59.6793 5.75367C59.8233 5.58041 59.7397 6.02436 59.7096 6.14964C59.6308 6.47351 59.6167 6.26298 59.6015 6.29153C59.419 6.63129 59.5135 6.59981 59.5539 6.65197C59.4276 6.96372 59.3953 7.10743 59.4216 7.09224L59.324 7.05873C59.3454 7.04296 59.3941 6.90408 59.448 6.65093C59.4518 6.63317 59.449 6.62458 59.4431 6.62046L59.5967 6.67316C59.5851 6.66206 59.5536 6.67366 59.5539 6.65197C59.6295 6.50685 59.6926 6.39737 59.742 6.3254L59.542 6.25677C59.6556 6.04231 59.7048 6.12763 59.6676 6.55485C59.6438 6.82732 59.5185 7.11876 59.6893 7.04575C59.7666 7.01281 59.8537 6.58945 59.9401 6.49079C60.1359 6.26536 60.2006 6.69896 60.35 6.67268C60.404 6.66309 60.4172 6.42234 60.4561 6.40789C60.5594 6.36876 60.591 6.56021 60.7006 6.49494C60.7106 6.48873 60.7538 6.24449 60.7814 6.24844C60.9948 6.27425 61.1367 6.47428 61.3485 6.53267C61.4524 6.56119 61.6737 6.4764 61.774 6.52973C61.9466 6.62045 62.0955 7.0276 62.2754 6.98169C62.3927 6.95283 62.4284 6.70698 62.5126 6.55408C62.6749 6.25751 62.6921 6.86354 62.6913 6.95651C62.6913 6.9596 62.5871 6.9944 62.6056 7.12946C62.5716 7.39336 62.69 6.95739 62.6913 6.95651C62.6913 7.01674 62.8579 7.11453 62.9042 7.07695C62.9295 7.05643 62.9732 6.82599 62.9853 6.81959C63.2751 6.67328 63.527 6.67149 63.7474 6.83525C63.7506 6.84087 63.6847 7.0946 63.6931 7.10462C63.8092 7.25125 63.9719 6.95978 64.1298 6.80077C64.2886 6.64203 64.3682 6.72555 64.3373 7.17993C64.4384 7.14485 64.5192 7.36706 64.566 7.50131C64.6134 7.6357 64.7354 7.14026 64.7441 7.13187C65.017 6.86232 65.0628 7.1717 65.2648 7.26296C65.3602 7.30711 65.5687 7.27722 65.6896 7.24653C65.7847 7.22131 65.8104 7.34929 65.9046 7.29156C65.9173 7.28388 65.955 7.05962 65.9601 7.05177C66.1045 6.80508 65.9449 7.33861 65.9418 7.43942C65.9303 7.80597 65.9287 8.00218 66.0783 7.86096C66.1127 7.82864 66.3569 7.06344 66.4136 7.02782C66.4871 6.98296 66.4038 7.25818 66.4821 7.20401C66.4887 7.19963 66.5248 7.02655 66.5623 7.04259C66.7389 7.11517 66.9178 7.25864 67.1129 7.2821C67.1396 7.28602 67.1643 7.00454 67.2039 7.00569C67.3895 7.01127 67.5793 7.06221 67.7274 7.22787C67.7633 7.26941 67.6957 7.45578 67.6928 7.51478C67.6765 7.87193 67.8631 7.38759 67.8783 7.38084C68.2497 7.20798 68.3977 7.71363 68.7696 7.56763C68.7904 7.55882 69.0448 7.05153 69.0064 7.52538C69.0041 7.55695 68.9625 8.04122 69.0854 7.73058C69.0931 7.71115 69.1081 7.46042 69.1684 7.49938C69.2302 7.53863 69.3733 7.40017 69.4058 7.68649C69.4168 7.77687 69.3788 8.26088 69.5497 7.90605C69.5609 7.8811 69.8839 7.0648 69.8014 7.65923C69.7877 7.75705 69.6418 8.37292 69.8149 8.07918C69.8483 8.02222 69.8432 7.87637 69.9149 7.80213C70.0261 7.6879 70.0953 7.87738 70.2565 7.62509C70.2846 7.58031 70.4546 7.1786 70.4418 7.51033C70.4397 7.56225 70.3742 7.76397 70.4003 7.79432C70.524 7.93947 70.7117 7.83856 70.8311 8.0178C70.8729 8.08074 70.7651 8.40609 70.7989 8.5085C70.8316 8.61062 70.9245 8.72413 71.0207 8.58728C71.1173 8.45046 71.1847 7.90611 71.2846 7.88626C71.7225 7.80144 72.0353 8.21564 72.4226 8.37939C72.4808 8.40404 72.4865 8.20235 72.5768 8.22566C72.8696 8.29915 73.4177 8.32573 73.6453 8.69206C74.9281 9.42853 75.9075 10.7761 75.1679 12.0572C75.1226 12.0868 75.0726 12.1109 75.0173 12.1284C74.6113 12.2527 74.4987 11.8533 74.3007 11.985C74.209 12.0405 74.7546 12.3757 74.7636 12.4056C74.8658 12.6826 74.5507 12.7004 74.5521 12.9044C74.5529 12.9456 74.8012 13.0194 74.7993 13.0532C74.7956 13.1681 74.64 13.2304 74.6174 13.327C74.6071 13.3721 74.7877 13.4486 74.7559 13.4802C74.6813 13.5579 74.5691 13.6011 74.3624 13.6064C74.3436 13.6069 74.1498 13.4479 74.1101 13.509C74.0448 13.6115 73.8218 13.6548 73.9294 13.8591C73.9622 13.9198 74.3622 14.1212 74.0486 14.0574C73.9829 14.0444 73.5116 13.7846 73.8842 14.0787C73.9466 14.1266 74.4311 14.5591 74.0356 14.4464C73.9312 14.4174 73.5141 14.2676 73.5549 14.3404C73.5619 14.351 73.7882 14.4364 73.7917 14.4816C73.7981 14.6434 73.7154 14.7502 73.718 14.9116C73.7193 14.9546 73.9668 15.0169 73.9616 15.0775C73.9507 15.2381 73.8063 15.3824 73.6712 15.4759C73.6209 15.5104 73.454 15.3839 73.4322 15.3771C73.0786 15.2674 73.5004 15.5245 73.5165 15.5563C73.6096 15.7524 73.3581 15.7362 73.3588 15.8698C73.3582 15.9066 73.5781 15.9924 73.5938 16.0078C73.745 16.1618 73.3924 15.9247 73.3312 15.9423C73.1579 15.9925 73.1138 16.1206 73.0853 16.2426C73.075 16.2878 73.3406 16.3664 73.3285 16.4056C73.259 16.6453 73.1272 16.8467 72.8861 16.9898C72.841 17.0151 72.6663 16.896 72.6195 16.8823C72.2928 16.7856 72.6587 17.0745 72.6879 17.1132C72.8215 17.2893 72.6389 17.2392 72.6305 17.3324C72.5993 17.7748 72.2546 18.1854 72.0138 18.4961C71.6955 18.9127 71.343 19.1726 71.1722 19.6337C71.161 19.6631 71.425 19.7587 71.4185 19.7857C71.328 20.1198 71.0766 20.3833 71.0002 20.7219C70.9932 20.75 71.2486 20.8299 71.2454 20.8788C71.2406 20.98 71.1754 21.0803 71.0575 21.1294C71.0004 21.1535 70.824 20.9976 70.7708 21.0236C70.6481 21.0809 70.5811 21.1753 70.5708 21.2932C70.5669 21.3436 70.8411 21.3983 70.8172 21.4546C70.6556 21.8474 70.5228 22.2286 70.0246 22.4557C69.9905 22.471 69.4843 22.2552 69.5527 22.3561C69.6882 22.4264 69.8501 22.504 69.9962 22.5765C69.8093 23.1676 69.3821 23.6204 69.0948 24.1587C69.0827 24.1816 69.3651 24.2657 69.343 24.3107C69.2133 24.5748 69.1727 24.8503 68.7832 24.9984C68.745 25.0131 68.2877 24.7815 68.3207 24.8936C68.3265 24.9144 68.3338 25.06 68.4206 25.1368C68.4339 25.148 68.6604 25.2284 68.6492 25.2686C68.5806 25.5008 68.4233 25.7086 68.1867 25.8707C68.1485 25.8958 67.9349 25.7509 67.9058 25.7677C67.7012 25.8869 67.7867 26.1626 67.4969 26.2381C67.302 26.2885 66.9222 26.0608 66.5002 25.9407C66.4407 25.9238 66.3984 25.9921 66.1678 25.8901C65.5877 25.6338 64.9738 25.3072 64.3536 25.0381C64.22 24.9801 64.317 25.1439 64.0245 24.9383C64.005 24.9244 63.9319 24.8044 63.8316 24.7368C63.7623 24.6901 63.5194 24.6043 63.435 24.5352C63.3507 24.4661 63.5584 24.5291 63.4648 24.436C63.3697 24.3423 63.0967 24.2377 63.1031 24.1415ZM64.7786 8.10181C64.7929 8.356 64.9978 7.48236 64.8784 7.67568C64.8723 7.68606 64.7778 8.08931 64.7786 8.10181ZM56.9783 5.72358C56.8656 6.11369 57.2002 5.63353 57.293 5.3357C57.3864 5.03847 57.0129 5.60557 56.9783 5.72358ZM56.0221 5.51279C55.9583 5.83633 56.608 4.74223 56.3821 4.90878C56.3692 4.91809 56.0258 5.49399 56.0221 5.51279ZM66.5206 25.603C66.5094 25.5989 66.475 25.6454 66.4852 25.6516C66.7311 25.7987 66.7995 25.7058 66.5206 25.603ZM55.0535 5.30981C54.9947 5.47506 55.1789 5.35312 55.252 5.14769C55.3108 4.98244 55.1269 5.10449 55.0535 5.30981ZM68.1435 9.80642C68.1418 9.81972 68.1787 9.83995 68.1938 9.76587C68.2422 9.52728 68.1728 9.58268 68.1435 9.80642ZM53.6716 4.50254C53.8486 4.66435 53.4345 5.64143 53.2725 5.40622C53.2434 5.36379 53.5315 5.17061 53.5289 5.05861C53.5243 4.85465 53.1242 5.38426 53.2095 5.02312C53.2254 4.95722 53.6629 4.49137 53.6728 4.5015C53.6724 4.50185 53.672 4.5022 53.6716 4.50254ZM64.5831 9.16244C64.5819 9.17433 64.6339 9.19742 64.6377 9.18623C64.729 8.9147 64.6245 8.86807 64.5831 9.16244ZM70.3271 10.8682C70.3243 10.8935 70.4445 10.9476 70.4541 10.926C70.6335 10.4906 70.3875 10.3789 70.3271 10.8682ZM60.7347 8.92265C60.605 9.18535 60.525 9.19976 60.5668 8.83898C60.6212 8.87264 60.6799 8.89052 60.7347 8.92265Z" fill="black"/>
<path d="M70.9648 14.2885C69.9342 14.6813 68.5163 15.091 67.426 15.3911C67.081 15.4864 67.1909 15.2733 66.9524 15.3325C66.4873 15.4488 66.0934 15.6925 65.6298 15.8056C65.4748 15.8429 65.559 15.5349 65.3982 15.5796C64.5129 15.8294 63.7458 16.2363 62.8806 16.5727C58.6083 18.2425 54.5611 20.3322 50.5032 22.668C49.1671 23.4378 47.46 24.254 46.1986 25.2249C46.0541 25.3365 46.2678 25.4591 46.2493 25.4936C45.9411 26.0389 45.8454 25.5648 45.5143 25.7193C44.2001 26.3363 42.8946 27.2518 41.8835 28.1689C41.4634 28.555 42.1885 28.5316 41.5851 28.7071C41.5431 28.7202 41.5074 28.445 41.3683 28.5277C41.0563 28.7108 40.5994 29.168 40.3905 29.3457C40.3093 29.4125 40.2477 29.4647 40.1966 29.5091C39.9803 29.7023 39.8854 29.801 39.6267 30.0829C39.1776 30.5702 38.5865 31.1263 38.2115 31.7537C38.1322 31.8879 38.4465 31.8578 38.3397 32.0833C38.2337 32.3042 37.8632 32.8359 37.7 32.9964C37.535 33.156 37.4238 32.9761 37.3662 32.9872C36.8805 33.0743 36.9372 34.0015 36.9035 34.0939C36.2332 35.7684 35.3525 37.0685 34.7281 38.6848C34.2602 39.9039 33.8984 41.2665 33.5135 42.4587C33.0539 43.8816 32.5847 45.0692 32.2355 46.4866C32.1989 46.6349 32.5179 46.5333 32.4739 46.7145C32.0036 48.6535 31.5246 50.5774 30.9168 52.4912C30.8554 52.6842 30.6672 52.3777 30.5913 52.5679C30.5654 52.6337 30.5381 52.7019 30.5098 52.772C30.0356 53.8813 29.437 55.6072 30.4121 56.3474C30.3029 57.1387 30.2285 58.1021 30.0191 58.8222C29.8853 59.2908 29.6056 58.8423 29.7348 59.4157C29.7645 59.5442 29.9961 59.3695 30.0231 59.5612C30.1371 60.3705 30.1305 61.2632 30.3484 62.0472C30.3933 62.2071 30.5989 62.1364 30.6425 62.1774C30.9953 62.5182 30.585 63.225 30.5726 63.3732C30.4748 64.4833 30.7479 65.2465 30.9811 66.2297C31.036 66.4579 31.246 66.1205 31.3088 66.3362C31.6319 67.4551 31.9565 68.6224 32.2031 69.7571C32.2574 70.0094 31.9519 69.8632 31.9662 69.988C32.0353 70.5418 32.5076 70.5012 32.5898 71.0273C32.6078 71.1377 32.3911 71.1497 32.3764 71.1764C32.1453 71.5938 32.7187 71.6794 32.7569 71.7505C33.2566 72.6562 33.0014 73.4603 33.4393 74.3639C33.4923 74.4717 33.6377 74.1242 33.7714 74.4324C34.0533 75.0806 34.3299 75.7463 34.5924 76.4264C34.99 77.5129 36.0719 78.4492 37.2829 79.2133C37.5588 79.3864 37.2647 79.4613 37.2715 79.492C37.4135 79.9861 37.8354 79.6133 37.9387 79.638C38.7652 79.8496 39.3941 80.5215 40.1489 80.1327C40.3286 80.2043 40.5102 80.2734 40.6929 80.3403C43.6837 81.4066 47.06 80.0083 50.2224 78.7964C50.2659 78.7786 50.3188 79.0383 50.4057 79.0014C51.4386 78.5497 51.0596 78.3142 51.3787 77.5233C51.4572 77.3258 52.2297 77.4711 52.3011 77.4665C52.538 77.4798 52.6209 77.889 52.6872 77.8757C52.7339 77.8649 52.7703 77.8483 52.7979 77.827C53.105 77.5648 52.347 76.8747 52.5755 76.5352C52.5862 76.5222 52.7421 76.7016 52.785 76.6762C52.9216 76.5921 52.9108 76.4199 53.0431 76.3192C53.3405 76.0902 53.9788 76.1231 53.7899 75.4483C53.7598 75.3646 53.0665 75.3112 53.1981 74.7803C53.2616 74.57 53.3456 73.5664 53.389 73.2765C53.3965 73.237 53.407 73.2072 53.4196 73.1848C53.4977 73.0555 53.6645 73.1896 53.6732 73.1745C53.9626 72.4351 54.0865 72.7059 54.4811 72.2413C54.8452 71.7363 53.8273 72.0534 53.6824 71.9347C53.5434 71.8181 53.6088 71.2307 53.623 71.0623C53.6465 70.8988 53.8489 71.0061 53.8421 70.8681C53.7467 69.9375 53.2115 70.7669 52.9432 70.6147C52.312 70.3116 52.65 69.4799 52.2946 68.9491C52.2012 68.8108 52.1565 69.0291 52.0468 68.9299C51.8638 68.764 51.7443 68.5934 51.6207 68.423C51.4643 68.2047 51.2865 67.9913 50.9226 67.8596C50.8123 67.8125 50.1603 67.9068 50.069 67.4554C50.0542 67.389 50.2716 67.2912 50.086 67.1314C49.8104 66.8894 49.2225 66.5665 48.8272 66.4903C48.5364 66.4329 48.7373 66.8473 48.4329 66.6321C48.2945 66.5373 48.6423 66.4586 48.372 66.2947C48.1042 66.1272 47.3349 65.9237 47.0376 65.8656C46.7424 65.8043 46.8499 66.0786 46.8224 66.0889C46.6594 66.146 46.076 66.1471 46.0275 66.1391C44.0433 65.7925 42.13 65.3667 40.1594 65.0646C39.6535 64.9878 39.1376 64.9465 38.6142 64.9479C38.4187 64.9485 38.5365 65.2108 38.5065 65.2135C37.839 65.2947 38.3909 64.6326 37.92 64.3919C37.9774 64.9137 37.702 64.81 37.2265 64.8709C36.9992 64.9013 37.1262 65.1012 37.1056 65.122C36.7772 65.4324 36.5349 65.0474 36.4696 64.969C36.2317 64.6808 36.0051 65.0447 35.8409 64.8561C35.674 64.6694 36.0128 64.3538 35.5494 64.3889C35.4349 64.5838 35.8061 65.0442 35.469 65.148C34.2068 65.5193 31.7683 65.5392 30.7267 65.7533C29.6943 65.9505 29.3761 66.0777 28.7673 66.1761C27.6684 66.3671 28.1601 66.6011 27.5592 66.9611C26.9612 67.3282 26.9985 66.3839 26.8444 66.2332C26.6905 66.0833 26.6505 66.3038 26.5007 66.2441C26.3506 66.1846 26.5609 65.9755 26.2739 66.0322C25.9842 66.088 25.3556 66.6785 25.3334 66.9019C25.2829 67.3737 25.7653 67.6613 25.0144 67.7859C24.9709 67.7931 25.0158 67.5245 24.8533 67.5632C24.3762 67.6802 23.901 67.8308 23.4312 67.9969C22.6761 68.2584 21.9899 68.7239 21.3611 69.2511C21.2229 69.3674 21.1413 69.0731 21.0573 69.1413C20.2003 69.8911 20.8016 69.8757 20.8646 70.6183C20.4099 70.1449 19.8707 70.1883 19.4349 70.9453C19.1812 71.3983 19.4756 71.4545 19.5029 71.8352C19.5125 71.9472 19.1796 72.184 19.2723 72.2993C19.5719 72.6816 20.1538 72.5826 19.6147 73.2785C19.5905 73.3087 19.4255 73.0996 19.3576 73.2113C19.2861 73.3291 19.2353 73.4352 19.199 73.5328C19.0761 73.953 19.3554 74.1939 19.3127 74.8777C19.273 75.5144 18.9828 76.7522 18.9682 77.5615C18.2389 77.5665 18.4352 78.3401 18.955 78.6187C18.9634 79.1479 19.0317 79.7153 19.0028 80.2237C18.9933 80.4021 18.7741 80.3031 18.7531 80.3271C18.4254 80.7042 18.9311 80.8812 18.9604 80.9963C19.2556 82.2127 18.9945 83.2551 19.487 84.3908C19.5046 84.4299 20.0151 84.4473 19.6843 84.7983C19.6614 84.8217 19.3883 84.4638 19.4343 85.0133C19.4814 85.5735 19.3385 86.6459 19.6683 87.3852C19.7487 87.572 20.2136 87.9758 19.9452 88.3996C19.9086 88.4559 19.7576 88.4189 19.6871 88.5026C19.4635 88.7767 19.9855 88.8295 19.5914 89.1623C19.1975 89.4966 18.9501 90.1085 19.352 90.8505C19.3642 90.8758 19.7899 91.003 19.8162 91.2455C19.858 91.6331 19.8506 92.2032 19.9084 92.6041C19.9366 92.7982 20.1685 92.6396 20.1777 92.6727C20.4974 93.9605 20.4056 94.9217 20.5066 96.333C20.5249 96.5933 20.9687 97.2818 20.7709 97.8157C20.622 98.2228 19.9554 98.1634 19.7118 98.49C19.7133 98.5033 19.7209 98.5424 19.7233 98.5556C19.6239 98.7094 19.6148 98.9368 19.7854 99.302C20.0057 99.7731 21.6727 100.081 21.0765 101.15C21.6551 102.847 21.6158 104.539 22.3157 106.213C22.3472 106.29 22.832 106.434 22.8706 106.617C22.9263 106.885 22.7663 107.089 22.8014 107.287C22.9413 108.106 23.3041 108.82 23.481 109.598C23.5508 109.901 23.319 109.852 23.4017 110.207C23.4831 110.555 23.8188 110.732 23.819 111.236C23.822 111.63 23.374 112.138 23.4501 112.641C23.9934 112.5 24.0786 112.841 24.392 113.371C24.4537 113.477 24.6039 113.299 24.6428 113.346C24.8048 113.535 24.7097 113.778 24.8763 113.946C24.917 113.989 25.1006 113.934 25.1442 113.965C25.5191 114.224 25.2894 114.915 25.2496 115.033C25.1023 115.497 25.393 115.578 25.3869 115.905C25.379 116.224 25.0998 115.848 25.1503 116.2C25.256 116.93 25.6189 117.806 25.9153 118.485C26.0375 118.761 26.1851 118.467 26.2079 118.504C26.5092 119.018 26.6022 119.732 27.2098 119.676C27.1679 119.732 27.1318 119.784 27.101 119.831C26.5312 120.711 27.5387 119.951 27.8595 120.717C27.8867 120.78 27.4843 121.267 27.2317 121.115C26.9773 120.962 26.8734 120.503 26.5479 120.308C26.5396 120.303 26.5233 120.298 26.501 120.293L26.5134 120.309C26.3016 120.258 25.6415 120.091 25.582 120.044C25.0271 119.626 25.8451 119.144 25.874 119.095C26.2246 118.567 25.4069 118.258 25.3061 118.124C24.8352 117.504 24.7427 116.864 24.4053 116.328C24.1835 115.967 23.5981 116.137 23.5121 115.82C23.2361 114.781 23.9465 114.193 22.9557 113.453C22.7459 113.296 22.1614 113.675 22.4539 112.802C22.4718 112.746 22.7776 112.072 22.3986 111.839C22.3507 111.81 22.164 111.863 22.1336 111.815C21.9337 111.489 22.0217 111.224 21.8451 110.854C21.6732 110.502 21.4415 110.059 21.3936 109.612C21.3627 109.337 21.6267 108.911 21.6811 108.765C21.8382 108.349 21.3362 108.068 21.5821 107.776C21.8284 107.48 22.3933 107.799 22.444 107.17C21.949 107.27 21.4341 107.344 20.9329 107.43C20.6357 106.149 20.4987 104.858 20.1852 103.582C20.1455 103.423 19.9184 103.647 19.8691 103.477C19.6646 102.771 19.7124 102.097 19.4738 101.367C19.2879 100.802 18.8694 100.223 18.6711 99.6384C18.9067 99.402 18.9386 99.0791 18.8987 98.7286C18.8944 98.7046 18.8804 98.6331 18.8776 98.6089C18.8598 98.2358 18.7637 97.8363 18.743 97.497C18.7287 97.2666 18.8836 97.2606 18.9099 97.0879C19.006 96.4401 18.5424 96.8034 18.4389 96.6447C17.9979 95.9721 19.1309 95.7398 18.9834 94.8923C18.9763 94.8501 18.2889 94.3769 18.2403 94.3051C17.9251 93.853 18.4411 94.1946 18.444 93.885C18.4508 93.3295 18.5405 92.905 18.2744 92.2895C18.1952 92.1043 17.7524 91.6955 17.9973 91.2913C18.0293 91.238 18.2344 91.2374 18.241 91.1972C18.342 90.4591 17.7063 90.525 17.4384 90.1527C17.1695 89.772 17.5252 89.0886 17.6353 88.949C17.918 88.5711 17.8077 89.1846 17.8419 89.1968C18.2501 89.3555 18.1263 88.9194 18.1125 88.5584C18.7272 88.4263 18.6277 87.946 18.0968 88.1926C18.0389 88.22 18.1317 88.4839 18.1125 88.5584C17.463 88.3291 17.3163 87.8043 17.8123 87.1384C18.0453 86.8283 18.3892 87.0577 18.1715 86.2227C18.0738 85.8472 17.6639 86.0519 17.5062 85.724C17.1471 84.9808 17.4322 83.9247 17.2861 83.1365C17.2326 82.8454 17.0275 83.1564 16.9828 82.9571C16.8643 82.4336 16.9945 81.9451 16.8562 81.4272C16.8433 81.3786 16.6079 81.5215 16.5895 81.3524C16.4489 80.0843 16.5224 78.9826 16.4818 77.616C16.4602 76.9604 16.3207 75.7718 16.414 75.015C16.5082 74.3197 16.6588 73.5606 17.1874 72.5801C17.4858 72.127 17.7787 71.6251 17.9596 71.1763C18.2169 70.5494 17.9358 70.5635 17.932 70.2174C17.9249 69.5322 19.0348 68.9301 19.1955 68.8832C19.1961 68.8817 18.8851 69.4274 19.1799 69.227C19.505 69.2246 19.1915 68.891 19.1955 68.8832C19.2831 68.8328 20.1504 67.8857 20.3291 67.6809C20.4146 67.5629 20.1952 67.4488 20.2448 67.3893C20.8139 66.7156 21.5588 66.1126 22.4257 65.7022C23.1412 65.3535 23.8864 65.0633 24.6573 64.8361C24.6842 64.8311 24.7379 65.0908 24.7999 65.0761C25.6674 64.879 26.0958 64.3963 26.741 63.9911C27.3855 63.5879 27.9753 63.4874 28.5107 63.8082C29.0292 63.6071 29.848 63.6111 30.3166 63.6313C30.7844 63.6509 30.7417 63.1408 30.7793 63.1222C31.9525 62.5533 32.7353 62.7163 34.0446 62.6047C34.6679 62.5499 35.9061 62.3791 36.5952 62.3083C37.1405 62.2478 37.4689 62.366 37.9756 62.2986C38.0444 62.2899 37.9799 62.0613 38.001 62.053C38.5797 61.7964 38.2878 62.345 38.4009 62.4476C38.8102 62.8262 39.043 63.0257 39.7715 62.9238C39.8899 62.9073 40.2194 62.5195 40.5208 62.3052C40.6261 62.2192 40.7248 62.1584 40.8028 62.1552C41.1616 62.1412 40.9945 62.4089 41.3738 62.3864C41.4064 62.3847 41.4208 62.2085 41.6508 62.2447C42.7155 62.4107 43.8935 62.6489 45.0689 62.804C45.2305 62.8263 45.0646 62.5179 45.2995 62.5459C46.398 62.6782 47.6551 62.9202 48.773 63.3911C49.0458 63.5081 48.8113 63.6425 48.8552 63.7168C49.1163 64.1632 49.8113 63.874 49.9116 63.9048C51.4507 64.3236 52.6867 65.2894 53.7229 66.4888C54.0632 66.8909 54.4885 67.3451 54.9858 67.8864C55.0667 67.9547 56.1445 68.539 55.9602 69.231C55.953 69.2833 55.7368 69.905 56.1965 70.1817C56.2254 70.2028 56.3443 69.8103 56.5166 70.3416C56.6856 70.8605 57.0709 71.7577 56.8381 72.5471C56.7966 72.6943 56.6212 72.9511 56.5459 73.2653C56.4944 73.4474 56.4979 73.6585 56.6397 73.9061C56.671 73.9271 57.4501 74.9584 56.7935 75.2267C56.6827 75.2704 56.0886 75.0981 56.2551 75.8834C56.2833 76.0393 56.4842 75.8087 56.4774 76.2108C56.4552 76.8418 56.0519 77.5819 55.7793 78.5488C55.7509 78.699 55.6328 79.6456 54.8532 79.895C54.737 79.928 54.7528 79.6403 54.4638 79.8511C54.4508 79.8602 54.4377 79.8693 54.4246 79.8784C53.5852 80.4049 52.8514 81.0548 51.9601 81.4113C51.6419 81.5368 51.6201 81.1557 51.2758 81.2448C50.9307 81.3355 50.2799 81.5752 50.0232 81.8693C49.7603 82.1667 50.3599 82.4883 49.87 82.7623C47.7187 83.9329 45.1595 84.3801 42.4474 84.2385C42.0422 84.21 42.3714 84.431 41.7609 84.3834C41.1294 84.3262 40.3526 84.2122 39.5364 83.9654C37.9408 83.5085 35.9419 82.7352 34.9346 81.7701C33.8476 80.6995 35.55 81.4819 34.6902 80.7663C34.2959 80.4285 33.4219 80.5163 33.2912 80.4212C32.2811 79.7318 31.7834 78.7632 31.3678 77.6998C31.3183 77.57 31.2614 77.4383 31.1931 77.3038C31.1049 77.1303 30.9368 77.4019 30.8643 77.2528C30.6169 76.7515 30.5 76.1513 30.2806 75.6545C30.1812 75.4306 30.0147 75.5424 29.9465 75.328C29.78 74.8127 29.6812 74.3313 29.6638 73.7689C29.6623 73.7178 30.006 73.9362 29.8714 73.5561C29.6524 72.939 29.5422 72.1137 29.1177 71.4576C28.9913 71.2628 28.5627 71.3972 28.7012 70.8366C28.7304 70.7185 29.2806 70.6752 28.6635 70.2796C28.5605 70.2173 27.6716 69.4796 27.9281 68.9051C27.9951 68.7549 28.3309 68.3294 28.1919 68.083C28.1714 68.0499 27.9788 68.2578 27.8961 68.0439C27.6083 67.2834 27.4324 66.4525 27.1871 65.6456C27.1215 65.4303 26.9453 65.8089 26.8555 65.4842C26.6071 64.5891 26.4819 63.425 26.4536 62.5093C26.4435 62.1722 26.6753 62.3794 26.6947 62.3522C27.013 61.9261 26.5019 61.7478 26.4607 61.6183C26.2152 60.8246 26.4099 60.1856 26.3273 59.4396C26.3058 59.2329 26.0747 59.3854 26.0527 59.3446C25.8393 58.9161 26.2671 59.2301 26.3095 58.9571C26.4312 58.1979 26.4333 57.3532 26.4527 56.5851C26.4599 56.3025 26.1669 56.6021 26.1773 56.3468C26.2331 54.8849 26.4736 53.3694 26.9067 52.0035C26.9211 51.9589 26.9356 51.9144 26.9502 51.8702C27.0326 51.6231 27.2035 51.8264 27.2617 51.7838C27.6672 51.4906 27.3343 50.8753 27.3197 50.7403C27.2495 50.1383 27.4769 49.9734 27.5556 49.4738C27.9294 47.0533 28.8069 44.1314 29.5646 41.9142C30.5546 39.0259 31.5383 36.8373 32.7657 34.106C32.8457 33.9319 32.5104 33.9857 32.5767 33.8336C33.4504 31.8737 34.6333 30.0509 36.0056 28.2335C36.1193 28.0851 35.7416 28.1278 35.9214 27.8805C36.2517 27.4244 36.733 26.9028 37.2047 26.5219C37.2587 26.478 37.3128 26.4357 37.367 26.395C37.6285 26.1997 37.473 26.6632 37.7324 26.4657C38.3253 26.0229 38.9039 25.5652 39.4027 25.1115C39.6208 24.9139 39.1035 24.9797 39.4037 24.7373C41.4165 23.1232 43.3956 21.7227 45.6923 20.6531C45.8539 20.5776 46.2692 20.9638 46.518 20.6803C46.4591 20.537 46.3615 20.3864 46.284 20.2424C49.273 18.2394 52.4403 16.624 55.6394 14.9758C55.7745 14.9063 55.4064 14.7703 55.6677 14.6343C57.1798 13.8489 58.6343 13.0351 60.3436 12.5586C60.5134 12.5112 60.6482 13.0125 61.0784 12.7298C61.1536 12.6789 61.8242 12.3007 61.963 12.1185C61.981 12.0921 61.7549 11.9306 61.98 11.8233C63.288 11.205 64.7172 10.6733 66.1351 10.2987C66.3627 10.2394 66.2186 10.565 66.381 10.5252C67.5374 10.2384 68.6928 9.64206 69.8628 9.53635C70.6347 9.47253 70.4866 9.97529 70.9897 10.2844C71.061 10.3275 71.5107 10.2174 71.5961 10.4565C71.8124 11.0553 71.7801 11.7814 72.0365 12.413C72.0922 12.5478 72.6064 12.256 72.3657 12.6797C72.3491 12.7077 71.9771 12.9252 71.9087 13.0681C71.8614 13.1665 72.0522 13.3803 71.9403 13.5203C71.8303 13.6598 71.6116 13.4973 71.4207 13.6816C71.2272 13.8691 71.4112 14.1174 70.9648 14.2885ZM32.4141 63.769C32.8617 63.9436 32.7847 63.0475 32.369 63.3329C32.349 63.3478 32.3909 63.7608 32.4141 63.769ZM21.1633 104.712C21.4279 104.105 20.7807 103.885 20.5661 104.315C20.3542 104.754 21.0831 104.896 21.1633 104.712ZM22.7627 109.963C22.9066 109.285 21.6513 109.514 22.0691 110.091C22.0932 110.125 22.7545 110.003 22.7627 109.963ZM69.2641 10.9279C69.2736 10.937 69.5871 10.85 69.5939 10.8358C69.6769 10.5107 69.0391 10.6881 69.2641 10.9279ZM24.5839 115.103C24.6872 114.866 24.3307 114.398 24.1986 114.69C24.0916 114.925 24.4551 115.4 24.5839 115.103ZM52.6141 68.649C52.6086 68.6625 52.7522 68.8486 52.8069 68.7969C52.9831 68.6269 52.713 68.4196 52.6141 68.649ZM29.497 122.889C28.4483 121.964 28.6042 120.647 29.5879 121.688C29.7739 121.877 28.9409 121.57 29.1307 121.861C29.4897 122.402 30.2238 122.147 30.4996 122.815C30.5496 122.938 29.5542 122.945 29.4942 122.889C29.4951 122.889 29.4961 122.889 29.497 122.889ZM32.8213 64.7943C32.8309 64.8044 33.1521 64.7658 33.1581 64.7534C33.2902 64.4446 32.6375 64.5228 32.8213 64.7943ZM49.6016 79.4172C49.5767 79.4052 48.91 79.7121 48.8965 79.7407C48.7461 80.3361 50.1277 79.7033 49.6016 79.4172ZM18.9492 77.5749C19.2464 77.9186 19.2994 78.3234 18.9553 78.6171C18.9555 78.2721 18.9427 77.9294 18.9492 77.5749Z" fill="black"/>
</svg>
